<?xml version="1.0"?>
<svg xmlns="http://www.w3.org/2000/svg" xmlns:xlink="http://www.w3.org/1999/xlink" version="1.1" id="Layer_1" x="0px" y="0px" viewBox="0 0 512 512" style="enable-background:new 0 0 512 512;" xml:space="preserve" width="512px" height="512px" class=""><g><g>
	<rect y="237.41" style="fill:#D94671" width="30" height="37.19" data-original="#64DDE0" class="active-path" data-old_color="#64DDE0"/>
	<rect x="43.819" y="237.41" style="fill:#D94671" width="30" height="37.19" data-original="#64DDE0" class="active-path" data-old_color="#64DDE0"/>
	<rect x="87.64" y="221.67" style="fill:#D94671" width="30" height="68.65" data-original="#64DDE0" class="active-path" data-old_color="#64DDE0"/>
	<rect x="131.46" y="203.08" style="fill:#D94671" width="30" height="105.84" data-original="#64DDE0" class="active-path" data-old_color="#64DDE0"/>
	<rect x="175.27" y="170.19" style="fill:#D94671" width="30" height="171.63" data-original="#64DDE0" class="active-path" data-old_color="#64DDE0"/>
	<rect x="219.09" y="92.23" style="fill:#D94671" width="30" height="327.53" data-original="#64DDE0" class="active-path" data-old_color="#64DDE0"/>
	<rect x="262.91" y="120.12" style="fill:#D94671" width="30" height="271.75" data-original="#64DDE0" class="active-path" data-old_color="#64DDE0"/>
	<rect x="306.73" y="175.91" style="fill:#D94671" width="30" height="160.19" data-original="#64DDE0" class="active-path" data-old_color="#64DDE0"/>
	<rect x="350.55" y="209.51" style="fill:#D94671" width="30" height="92.97" data-original="#64DDE0" class="active-path" data-old_color="#64DDE0"/>
	<rect x="394.37" y="223.82" style="fill:#D94671" width="30" height="64.36" data-original="#64DDE0" class="active-path" data-old_color="#64DDE0"/>
	<rect x="438.18" y="237.41" style="fill:#D94671" width="30" height="37.19" data-original="#64DDE0" class="active-path" data-old_color="#64DDE0"/>
	<rect x="482" y="237.41" style="fill:#D94671" width="30" height="37.19" data-original="#64DDE0" class="active-path" data-old_color="#64DDE0"/>
</g><g>
	<rect y="256" style="fill:#ED215D" width="30" height="18.594" data-original="#00C2C7" class="" data-old_color="#00C2C7"/>
	<rect x="43.819" y="256" style="fill:#ED215D" width="30" height="18.594" data-original="#00C2C7" class="" data-old_color="#00C2C7"/>
	<rect x="87.64" y="256" style="fill:#ED215D" width="30" height="34.33" data-original="#00C2C7" class="" data-old_color="#00C2C7"/>
	<rect x="131.46" y="256" style="fill:#ED215D" width="30" height="52.92" data-original="#00C2C7" class="" data-old_color="#00C2C7"/>
	<rect x="175.27" y="256" style="fill:#ED215D" width="30" height="85.82" data-original="#00C2C7" class="" data-old_color="#00C2C7"/>
	<rect x="219.09" y="256" style="fill:#ED215D" width="30" height="163.77" data-original="#00C2C7" class="" data-old_color="#00C2C7"/>
	<rect x="262.91" y="256" style="fill:#ED215D" width="30" height="135.88" data-original="#00C2C7" class="" data-old_color="#00C2C7"/>
	<rect x="306.73" y="256" style="fill:#ED215D" width="30" height="80.09" data-original="#00C2C7" class="" data-old_color="#00C2C7"/>
	<rect x="350.55" y="256" style="fill:#ED215D" width="30" height="46.48" data-original="#00C2C7" class="" data-old_color="#00C2C7"/>
	<rect x="394.37" y="256" style="fill:#ED215D" width="30" height="32.18" data-original="#00C2C7" class="" data-old_color="#00C2C7"/>
	<rect x="438.18" y="256" style="fill:#ED215D" width="30" height="18.594" data-original="#00C2C7" class="" data-old_color="#00C2C7"/>
	<rect x="482" y="256" style="fill:#ED215D" width="30" height="18.594" data-original="#00C2C7" class="" data-old_color="#00C2C7"/>
</g></g> </svg>
