<?xml version="1.0" standalone="no"?><svg xmlns="http://www.w3.org/2000/svg" viewBox="0 0 1440 320"><path fill="#131722" fill-opacity="1" d="M0,96L14.1,122.7C28.2,149,56,203,85,202.7C112.9,203,141,149,169,128C197.6,107,226,117,254,149.3C282.4,181,311,235,339,240C367.1,245,395,203,424,160C451.8,117,480,75,508,101.3C536.5,128,565,224,593,240C621.2,256,649,192,678,160C705.9,128,734,128,762,154.7C790.6,181,819,235,847,218.7C875.3,203,904,117,932,96C960,75,988,117,1016,149.3C1044.7,181,1073,203,1101,229.3C1129.4,256,1158,288,1186,261.3C1214.1,235,1242,149,1271,112C1298.8,75,1327,85,1355,101.3C1383.5,117,1412,139,1426,149.3L1440,160L1440,320L1425.9,320C1411.8,320,1384,320,1355,320C1327.1,320,1299,320,1271,320C1242.4,320,1214,320,1186,320C1157.6,320,1129,320,1101,320C1072.9,320,1045,320,1016,320C988.2,320,960,320,932,320C903.5,320,875,320,847,320C818.8,320,791,320,762,320C734.1,320,706,320,678,320C649.4,320,621,320,593,320C564.7,320,536,320,508,320C480,320,452,320,424,320C395.3,320,367,320,339,320C310.6,320,282,320,254,320C225.9,320,198,320,169,320C141.2,320,113,320,85,320C56.5,320,28,320,14,320L0,320Z"></path></svg>